<?xml version="1.0" encoding="UTF-8" standalone="no"?>
<svg
   xmlns:dc="http://purl.org/dc/elements/1.1/"
   xmlns:cc="http://creativecommons.org/ns#"
   xmlns:rdf="http://www.w3.org/1999/02/22-rdf-syntax-ns#"
   xmlns:svg="http://www.w3.org/2000/svg"
   xmlns="http://www.w3.org/2000/svg"
   id="svg8"
   version="1.1"
   viewBox="0 0 74.033654 68.767669"
   height="68.76767mm"
   width="74.033653mm">
  <defs
     id="defs2" />
  <metadata
     id="metadata5">
    <rdf:RDF>
      <cc:Work
         rdf:about="">
        <dc:format>image/svg+xml</dc:format>
        <dc:type
           rdf:resource="http://purl.org/dc/dcmitype/StillImage" />
        <dc:title></dc:title>
      </cc:Work>
    </rdf:RDF>
  </metadata>
  <g
     transform="translate(-69.356453,-30.606415)"
     style="display:inline"
     id="layer2" />
  <g
     style="display:inline"
     transform="translate(-69.356453,-30.606415)"
     id="layer1">
    <g
       id="g3991">
      <g
         id="g21"
         transform="matrix(1.3119933,0,0,1.2437078,-87.180288,26.977448)"
         style="fill:#666666">
        <path
           style="fill:#666666;stroke-width:0.26458332"
           d="m 129.60683,57.460683 c -0.1827,-0.34138 -0.27389,-8.07658 -0.27389,-23.23276 0,-18.493483 0.0655,-22.81058 0.35206,-23.20247 0.46533,-0.636377 31.05355,-8.2432089 31.66251,-7.8739929 0.30949,0.187644 0.42601,1.020911 0.52917,3.784456 l 0.13229,3.5438299 1.44943,0.08207 c 0.79719,0.04514 1.53951,0.22373 1.6496,0.396875 0.11009,0.173144 0.20198,10.679202 0.20421,23.346792 0.003,17.56554 -0.0713,23.10733 -0.31345,23.34947 -0.2405,0.24051 -4.537,0.3175 -17.71777,0.3175 -16.93235,0 -17.40764,-0.0138 -17.67416,-0.51177 z m 34.25422,-23.16844 V 12.067246 l -16.4703,-0.06815 -16.47031,-0.06815 v 22.361297 22.3613 l 16.47031,-0.0682 16.4703,-0.0682 z m -28.38349,17.54817 c -0.22725,-0.22725 -0.23279,-0.40568 -0.0205,-0.66145 0.42789,-0.51558 23.30722,-0.51558 23.73511,0 0.75078,0.90462 -0.0793,0.97266 -11.86755,0.97266 -8.48989,0 -11.618,-0.0822 -11.84704,-0.31121 z m 0,-4.49791 c -0.22725,-0.22726 -0.23279,-0.40569 -0.0205,-0.66146 0.42789,-0.51558 23.30722,-0.51558 23.73511,0 0.75078,0.90463 -0.0793,0.97266 -11.86755,0.97266 -8.48989,0 -11.618,-0.0822 -11.84704,-0.3112 z m 0,-4.49792 c -0.22725,-0.22725 -0.23279,-0.40568 -0.0205,-0.66146 0.42789,-0.51557 23.30722,-0.51557 23.73511,0 0.75078,0.90463 -0.0793,0.97267 -11.86755,0.97267 -8.48989,0 -11.618,-0.0822 -11.84704,-0.31121 z m -0.16319,-6.19273 c -0.0883,-0.23018 -0.1606,-4.67121 -0.1606,-9.86896 0,-6.99756 0.0824,-9.532846 0.3175,-9.767938 0.45673,-0.456736 23.24993,-0.456736 23.70666,0 0.45532,0.455322 0.45532,19.282598 0,19.737918 -0.23737,0.23736 -3.26866,0.3175 -12.01023,0.3175 -10.41817,0 -11.71024,-0.0456 -11.85333,-0.41852 z m 22.79639,-11.55388 -0.0705,-6.94531 H 147.3246 136.60898 l -0.0716,5.35781 c -0.0566,4.23645 -1.7e-4,5.35782 0.26981,5.35782 0.18778,0 1.47017,-1.13524 2.84974,-2.52275 3.2713,-3.29011 3.23167,-3.29384 5.72429,0.53837 1.04118,1.60073 2.20091,3.3569 2.57717,3.9026 0.9793,1.42029 1.68862,1.33502 3.55307,-0.42712 2.07663,-1.96268 2.47001,-2.13902 3.30555,-1.48178 0.36837,0.28976 1.10561,1.12058 1.63831,1.84626 1.70264,2.31947 1.73504,2.20938 1.65546,-5.6259 z m -9.74818,-0.70725 c -0.8391,-0.8391 -0.94143,-1.32715 -0.46559,-2.22056 0.73492,-1.37987 2.21894,-1.6471 3.27609,-0.58994 1.00909,1.00908 0.70931,2.70141 -0.58281,3.29014 -0.98433,0.44849 -1.38606,0.36199 -2.22769,-0.47964 z m 11.87368,-14.096185 c 0.36516,-0.3651573 0.43977,-4.9008929 0.0897,-5.4528829 -0.1735,-0.273574 -2.52345,0.218954 -11.17459,2.342092 -6.02519,1.4786846 -11.04613,2.7441306 -11.15765,2.8121026 -0.82363,0.5020343 1.2167,0.6161883 11.01337,0.6161883 8.13408,0 10.99249,-0.08082 11.22917,-0.3175 z"
           id="path27" />
      </g>
    </g>
  </g>
</svg>
