<?xml version="1.0" encoding="UTF-8" standalone="no"?>
<!-- Created with Inkscape (http://www.inkscape.org/) -->

<svg
   xmlns:dc="http://purl.org/dc/elements/1.1/"
   xmlns:cc="http://creativecommons.org/ns#"
   xmlns:rdf="http://www.w3.org/1999/02/22-rdf-syntax-ns#"
   xmlns:svg="http://www.w3.org/2000/svg"
   xmlns="http://www.w3.org/2000/svg"
   xmlns:sodipodi="http://sodipodi.sourceforge.net/DTD/sodipodi-0.dtd"
   xmlns:inkscape="http://www.inkscape.org/namespaces/inkscape"
   width="89.95134mm"
   height="162.0052mm"
   viewBox="0 0 89.95134 162.0052"
   version="1.1"
   id="svg8"
   sodipodi:docname="food_drink_menu.svg"
   inkscape:version="0.92.4 (5da689c313, 2019-01-14)">
  <defs
     id="defs2" />
  <sodipodi:namedview
     id="base"
     pagecolor="#ffffff"
     bordercolor="#666666"
     borderopacity="1.0"
     inkscape:pageopacity="0.0"
     inkscape:pageshadow="2"
     inkscape:zoom="0.98994949"
     inkscape:cx="-11.279273"
     inkscape:cy="215.67563"
     inkscape:document-units="mm"
     inkscape:current-layer="g43"
     showgrid="false"
     fit-margin-top="0"
     fit-margin-left="0"
     fit-margin-right="0"
     fit-margin-bottom="0"
     inkscape:window-width="1920"
     inkscape:window-height="1016"
     inkscape:window-x="0"
     inkscape:window-y="27"
     inkscape:window-maximized="1" />
  <metadata
     id="metadata5">
    <rdf:RDF>
      <cc:Work
         rdf:about="">
        <dc:format>image/svg+xml</dc:format>
        <dc:type
           rdf:resource="http://purl.org/dc/dcmitype/StillImage" />
        <dc:title />
      </cc:Work>
    </rdf:RDF>
  </metadata>
  <g
     inkscape:label="Layer 1"
     inkscape:groupmode="layer"
     id="layer1"
     transform="translate(-59.342261,-53.507736)">
    <g
       id="g21"
       transform="translate(25.324405,-9.4494047)">
      <g
         id="g43"
         transform="translate(-20.78869,39.6875)">
        <path
           style="fill:#a52a2a;stroke-width:0.26458335;stroke:#d6ceff;stroke-opacity:0.99598396;fill-opacity:1"
           d="m 95.420088,184.64766 c -9.956702,-1.35712 -18.751275,-6.81308 -24.493879,-15.19546 -0.498366,-0.72745 -1.622256,-2.75151 -2.497529,-4.49791 l -1.591408,-3.17527 -5.273297,-0.0719 c -4.438801,-0.0605 -5.348856,-0.1403 -5.750779,-0.50403 -0.457335,-0.41388 -0.477483,-2.75081 -0.477483,-55.38344 0,-52.329613 0.02244,-54.971631 0.470461,-55.377079 0.488651,-0.442222 67.606836,-30.048754 68.164306,-30.048754 0.1738,0 0.55137,0.164867 0.83906,0.366371 0.4731,11.828214 0.58375,14.025015 0.80487,28.042104 0.30186,0.08106 5.08793,0.09912 18.80173,0.0066 0.004,41.952359 -0.0491,7.518048 -0.0481,57.010743 0,53.24611 -0.0134,54.72799 -0.49918,55.26478 -0.46982,0.51914 -0.81149,0.55578 -5.8104,0.62309 l -5.31122,0.0715 -1.59794,3.189 c -2.11639,4.22368 -3.99461,6.88199 -6.93266,9.81204 -4.88425,4.87093 -11.12684,8.18463 -17.88853,9.49562 -2.66876,0.51743 -8.405592,0.71307 -10.907992,0.37198 z"
           id="path215"
           inkscape:connector-curvature="0"
           sodipodi:nodetypes="ccscccscscccccccccscc" />
        <path
           style="fill:#ffffff;stroke-width:0.24773255"
           d="m 81.175764,55.709859 c -5.943964,0.02717 -11.888994,0.0048 -17.831747,0.144088 -0.189962,31.314152 -0.213561,62.630263 -0.04584,93.944563 1.987517,0.31368 2.778726,0.10944 2.497362,-2.06099 -2.536884,-18.91884 13.633246,-37.57797 32.810416,-37.80179 19.612195,-1.4562 37.807255,16.81259 35.757285,36.35853 -0.0796,1.91922 -0.99793,4.41817 1.91213,3.50347 1.39192,-5.71103 0.24001,-13.8825 0.63897,-20.5179 0.0171,-24.4941 0.0453,-48.989021 -0.16037,-73.482424 -18.52564,-0.134025 -37.052185,-0.09465 -55.578204,-0.08755 z"
           id="path207"
           inkscape:connector-curvature="0"
           sodipodi:nodetypes="ccccccccccc" />
        <path
           style="fill:#737373;stroke-width:0.26458335"
           d="m 85.13757,105.95037 c -20.220683,52.88298 -10.110341,26.44149 0,0 z"
           id="path205" />
        <path
           style="fill:#ffffff;stroke-width:0.21921904"
           d="m 116.77139,33.8839 c -11.4792,4.556237 -24.012383,9.491496 -34.916107,14.048987 14.35129,0.05172 21.569767,0.126766 35.920357,-0.03477 0.0626,-5.430741 -0.0106,-8.700905 -0.17745,-14.330315 l -0.78745,0.301052 z"
           id="path29"
           inkscape:connector-curvature="0"
           sodipodi:nodetypes="cccccc" />
        <path
           style="fill:#a52a2a;fill-opacity:1;stroke-width:0.26458338"
           d="m 91.13226,102.96093 c -1.61899,-0.28765 -3.74253,-1.45626 -4.76748,-2.62362 -0.44821,-0.510483 -1.11077,-1.574363 -1.47236,-2.364173 -0.61619,-1.34594 -0.64714,-1.62053 -0.49345,-4.3777 0.0902,-1.61792 0.24095,-3.801835 0.33502,-4.853125 l 0.17103,-1.911449 -0.76267,-0.28799 c -3.13906,-1.18535 -5.25081,-3.04155 -6.52813,-5.73816 -0.78804,-1.66368 -0.84912,-1.99245 -0.84912,-4.57075 0,-2.5916 0.0572,-2.8949 0.85114,-4.5174 1.04019,-2.12558 3.18275,-4.2347 5.27482,-5.19249 1.85521,-0.84934 4.48883,-1.07719 6.99184,-0.60491 l 1.82007,0.34342 1.33691,-1.25052 c 2.39026,-2.23581 5.46725,-3.2069 8.74224,-2.75901 2.44959,0.335 4.36214,1.36797 6.35873,3.43436 1.70326,1.76281 1.76267,1.79752 2.64408,1.54473 1.3407,-0.3845 3.66406,-0.3135 5.28892,0.16163 2.89271,0.84588 5.5405,3.13474 6.80603,5.88343 0.9616,2.08856 1.12143,5.5964 0.35452,7.78093 -1.086,3.09349 -3.19249,5.27574 -6.31418,6.54123 l -1.79054,0.72587 -0.0317,3.966414 c -0.0332,4.14779 -0.25142,5.31477 -1.30182,6.96107 -0.89057,1.395803 -1.93679,2.272173 -3.69354,3.093903 l -1.5875,0.74256 -8.06979,0.0463 c -4.43839,0.0255 -8.62926,-0.0531 -9.31306,-0.17457 z"
           id="path211"
           inkscape:connector-curvature="0" />
        <path
           style="fill:#ffffff;stroke-width:0.26458338"
           d="m 109.85682,161.3915 c 1.56767,-0.39474 3.06291,-1.85506 3.44642,-3.36592 0.19236,-0.75788 0.20815,-2.56425 0.0495,-5.66245 -0.27121,-5.29577 -0.31308,-5.18697 2.12509,-5.52041 3.97694,-0.54388 6.35854,-3.09422 6.57693,-7.04288 0.0926,-1.67332 0.0148,-2.10918 -0.60039,-3.36662 -1.25889,-2.57308 -3.7339,-4.10854 -6.60856,-4.09986 -1.95426,0.006 -2.07726,0.15211 -2.1458,2.55079 -0.067,2.34535 -0.80165,4.63201 -1.85232,5.7657 -0.86777,0.93635 -2.17556,0.86316 -2.74345,-0.15353 -0.3597,-0.64395 -0.33095,-0.8237 0.38092,-2.38125 2.34271,-5.12586 -0.91553,-10.58726 -6.34025,-10.62739 -5.500123,-0.0407 -8.998633,5.63923 -6.503763,10.55903 0.90719,1.78894 0.95344,2.14374 0.38523,2.95498 -0.53314,0.76116 -1.78051,0.7769 -2.52554,0.0319 -0.30589,-0.30589 -0.87144,-1.22862 -1.25677,-2.05052 -0.6236,-1.3301 -0.70256,-1.8238 -0.7184,-4.49156 -0.0137,-2.29901 -0.1061,-3.0531 -0.39688,-3.2371 -0.67425,-0.42667 -3.74059,-0.27195 -4.877,0.24608 -2.66393,1.21437 -4.11956,3.31876 -4.30609,6.22527 -0.1545,2.40744 0.52764,4.15605 2.23538,5.73018 1.33703,1.23244 2.32482,1.70711 4.10525,1.97274 2.20211,0.32854 2.24459,0.47412 1.68168,5.76214 -0.6039,5.67302 -0.5939,6.46161 0.0992,7.82015 0.60205,1.18012 1.31923,1.75798 2.86774,2.31065 1.30718,0.46653 15.120133,0.52361 16.921903,0.0699 z"
           id="path209"
           inkscape:connector-curvature="0" />
      </g>
    </g>
  </g>
</svg>
