<?xml version="1.0" encoding="UTF-8" standalone="no"?>
<svg
   xmlns:dc="http://purl.org/dc/elements/1.1/"
   xmlns:cc="http://creativecommons.org/ns#"
   xmlns:rdf="http://www.w3.org/1999/02/22-rdf-syntax-ns#"
   xmlns:svg="http://www.w3.org/2000/svg"
   xmlns="http://www.w3.org/2000/svg"
   id="svg8"
   version="1.1"
   viewBox="0 0 22.364897 22.594734"
   height="22.594734mm"
   width="22.364897mm">
  <defs
     id="defs2" />
  <metadata
     id="metadata5">
    <rdf:RDF>
      <cc:Work
         rdf:about="">
        <dc:format>image/svg+xml</dc:format>
        <dc:type
           rdf:resource="http://purl.org/dc/dcmitype/StillImage" />
        <dc:title></dc:title>
      </cc:Work>
    </rdf:RDF>
  </metadata>
  <g
     transform="translate(-19.70932,-168.85812)"
     id="layer1">
    <path
       id="path5359"
       d="m 95.97195,110.81495 c -0.0744,-0.12032 -0.11169,-0.95532 -0.0829,-1.85555 0.0287,-0.90023 -0.023,-1.75858 -0.11502,-1.90744 -0.0947,-0.15318 -0.65213,-0.27067 -1.28425,-0.27067 -1.25118,0 -2.05893,-0.3436 -2.88523,-1.22731 l -0.55952,-0.59841 -0.0668,-5.701604 c -0.0644,-5.499997 -0.0498,-5.729047 0.41327,-6.478347 0.54571,-0.88297 2.00354,-1.80108 2.00354,-1.26179 0,0.0966 -0.31213,0.35993 -0.69362,0.58528 -1.19515,0.706 -1.32073,1.362 -1.32034,6.897527 2.2e-4,4.299494 0.0543,5.095004 0.39167,5.770354 0.49616,0.99319 1.6253,1.56588 3.08826,1.56633 0.62163,1.9e-4 1.25111,0.12121 1.39882,0.26892 0.15984,0.15984 0.26858,0.93007 0.26858,1.9024 0,1.17298 0.0803,1.63383 0.2847,1.63383 0.15658,0 1.13633,-0.85608 2.17722,-1.9024 l 1.89251,-1.9024 h 1.51567 c 0.86124,0 1.51567,0.0966 1.51567,0.22381 0,0.12491 -0.60728,0.22381 -1.37422,0.22381 h -1.37422 l -2.16412,2.12622 c -2.0364,2.00071 -2.70991,2.42476 -3.02963,1.90744 z"
       style="fill:#305d66;fill-opacity:1;stroke-width:0.22381175" />
    <path
       id="path5357"
       d="m 125.91466,111.26241 c -0.50695,-0.32128 -0.20608,-1.02547 0.47156,-1.10368 0.52176,-0.0602 0.61357,0.0115 0.61357,0.47963 0,0.30275 -0.15931,0.61158 -0.35403,0.6863 -0.4282,0.16432 -0.3651,0.16969 -0.7311,-0.0623 z"
       style="fill:#000000;stroke-width:0.22381175" />
    <path
       id="path5355"
       d="m 161.31788,108.32829 c -0.0887,-0.0891 0.0389,-0.44293 0.28343,-0.7864 0.24457,-0.34347 0.63864,-1.05774 0.87572,-1.58727 l 0.43105,-0.96277 -0.63761,-1.12374 c -1.37504,-2.42342 -1.70838,-5.194771 -0.92685,-7.705833 0.43936,-1.41165 1.48957,-3.23828 2.26565,-3.94062 0.79728,-0.72154 0.71925,-0.17987 -0.13439,0.93277 -1.5455,2.0144 -1.96513,3.25172 -1.96198,5.785142 0.003,2.333661 0.33575,3.511681 1.42407,5.040071 0.55603,0.78088 0.55481,1.04423 -0.0109,2.36406 -0.27601,0.64393 -0.37465,1.14344 -0.25034,1.26775 0.12431,0.12431 0.7801,0.008 1.66438,-0.29566 l 1.45925,-0.5008 1.30898,0.53853 c 1.07363,0.4417 1.69127,0.53735 3.4352,0.53199 1.9784,-0.006 2.24793,-0.0639 3.87706,-0.83227 2.15228,-1.01505 2.17331,-0.58189 0.0244,0.50308 -1.50283,0.75879 -1.62866,0.7828 -4.0134,0.766 -2.02758,-0.0143 -2.65456,-0.1039 -3.55378,-0.50795 l -1.09186,-0.49059 -1.25816,0.4434 c -1.49335,0.52628 -2.98494,0.78702 -3.20991,0.56111 z"
       style="fill:#a5299a;fill-opacity:1;stroke-width:0.22381175" />
    <path
       id="path5353"
       d="m 128.43398,109.55811 c -0.33961,-0.51832 -0.33961,-0.60074 0,-1.11906 0.25411,-0.38781 0.56952,-0.55953 1.02774,-0.55953 0.45822,0 0.77363,0.17172 1.02773,0.55953 0.33962,0.51832 0.33962,0.60074 0,1.11906 -0.2541,0.38781 -0.56951,0.55953 -1.02773,0.55953 -0.45822,0 -0.77363,-0.17172 -1.02774,-0.55953 z"
       style="fill:#000000;stroke-width:0.22381175" />
    <path
       id="path5351"
       d="m 103.1424,106.98147 -2.25956,-2.23531 h -3.025787 c -2.765,0 -3.07894,-0.0418 -3.64261,-0.4852 -1.11427,-0.87649 -1.23403,-1.53074 -1.23403,-6.741632 0,-5.82026 0.19292,-6.67753 1.65186,-7.34005 0.82791,-0.37597 1.53843,-0.41864 6.964877,-0.41826 3.32361,2.3e-4 6.43692,0.0918 6.91847,0.20351 0.48155,0.11169 1.18656,0.5139 1.56668,0.89379 l 0.69114,0.69071 0.0675,5.40526 c 0.0734,5.876272 0.0101,6.285282 -1.12086,7.236872 -0.52196,0.4392 -0.90901,0.555 -1.85506,0.555 -1.88367,0 -1.90354,0.0211 -1.90354,2.01994 0,1.71035 -0.12684,2.45911 -0.41561,2.45349 -0.0791,-0.002 -1.16072,-1.0087 -2.40347,-2.23812 z"
       style="fill:#305d66;fill-opacity:1;stroke-width:0.22381175" />
    <path
       id="path5349"
       d="m 100.89146,99.546788 c 0.49946,-0.80995 0.67849,-1.41582 0.76161,-2.57749 0.10564,-1.47655 0.0887,-1.53819 -0.61289,-2.22408 -0.89921,-0.87914 -1.522887,-1.04327 -2.606807,-0.68598 -0.94509,0.31152 -1.87198,1.46925 -1.87198,2.33819 0,0.79495 0.58295,1.78061 1.30555,2.20746 0.4859,0.28703 0.61227,0.5022 0.53434,0.90986 -0.14448,0.755792 0.33717,1.238962 1.15462,1.158272 0.540757,-0.0534 0.818297,-0.28742 1.335557,-1.126232 z"
       style="fill:#ffffff;fill-opacity:1;stroke-width:0.22381175" />
    <path
       id="path5347"
       d="m 106.16256,99.818158 c 1.24209,-1.71465 1.43713,-4.13159 0.41098,-5.09283 -1.25319,-1.17391 -2.65894,-1.14204 -3.73604,0.0847 -1.02499,1.1674 -0.96106,2.32274 0.19236,3.47616 0.5731,0.5731 0.83634,1.01409 0.76597,1.28318 -0.13994,0.535102 0.48643,1.148162 1.17308,1.148162 0.37562,0 0.74226,-0.27625 1.19365,-0.899382 z"
       style="fill:#ffffff;fill-opacity:1;stroke-width:0.22381175" />
    <path
       id="path5345"
       d="m 55.683556,106.49715 c -0.0797,-0.0797 0.1518,-0.67046 0.51436,-1.31288 0.81156,-1.438 0.81792,-1.79865 0.0558,-3.1623 -0.4781,-0.85541 -0.60594,-1.38426 -0.61548,-2.546073 -0.007,-0.80652 0.13067,-1.818902 0.3051,-2.249742 0.42479,-1.04926 1.75492,-2.68574 2.18296,-2.68574 0.24333,0 0.14117,0.23092 -0.34933,0.78956 -1.87204,2.13214 -2.20285,4.410032 -0.97081,6.684745 0.68387,1.26263 0.69495,1.32746 0.38094,2.22861 -0.17788,0.51048 -0.32489,1.05404 -0.32668,1.20791 -0.005,0.41558 0.79316,0.33929 1.79449,-0.17155 0.83756,-0.42729 0.92944,-0.43202 1.72562,-0.0888 3.69832,1.59448 8.5428,1.11593 11.16861,-1.10327 0.96851,-0.81853 1.4316,-0.75057 0.62505,0.0917 -0.79843,0.83382 -2.91939,1.86385 -4.52913,2.19955 -2.00647,0.41842 -4.22514,0.30748 -6.16525,-0.30827 l -1.75056,-0.5556 -1.26818,0.42021 c -1.66372,0.55128 -2.59889,0.74046 -2.77747,0.56188 z"
       style="fill:#547729;fill-opacity:1;stroke-width:0.22381175" />
    <path
       id="path5343"
       d="m 132.9308,107.80108 c -0.36929,-0.17166 -0.9156,-0.57674 -1.21402,-0.90017 -0.37867,-0.4104 -0.76965,-0.58807 -1.29411,-0.58807 -1.57124,0 -2.93044,-0.91595 -3.56458,-2.40214 -0.19248,-0.45111 -0.63733,-0.8912 -1.18142,-1.16877 -1.26119,-0.64341 -1.81025,-1.44074 -1.81025,-2.62881 0,-1.061272 0.22555,-1.635432 0.91219,-2.322072 0.31537,-0.31536 0.43091,-0.7453 0.43152,-1.60569 0.002,-2.41023 1.87183,-3.96021 4.25283,-3.52481 0.93942,0.17178 0.97716,0.15429 1.95346,-0.90558 1.89551,-2.05774 4.1728,-2.3033 6.59711,-0.71135 0.76397,0.50167 0.9322,0.52767 2.1058,0.32548 2.9935,-0.51574 5.00176,1.31396 4.6793,4.26326 -0.13623,1.24603 -0.11227,1.32749 0.65377,2.22245 0.69699,0.81426 0.7952,1.07743 0.7952,2.13079 0,1.758322 -0.74535,2.925672 -2.34231,3.668492 -0.40889,0.19019 -0.92449,0.77485 -1.34288,1.52274 -0.96767,1.72978 -2.12862,2.31804 -4.23737,2.14711 -1.2217,-0.099 -1.6256,-0.0512 -1.93526,0.229 -0.54272,0.49116 -2.61618,0.63991 -3.45898,0.24814 z"
       style="fill:#353700;fill-opacity:1;stroke-width:0.22381175" />
    <path
       id="path5339"
       d="m 36.234713,106.5926 -0.81431,-0.83929 -3.28103,-0.11243 c -2.75101,-0.0943 -3.40757,-0.18548 -4.06437,-0.56465 -0.85525,-0.49373 -1.79049,-2.06901 -1.79049,-3.01581 0,-0.94646 0.93527,-2.522052 1.79049,-3.016342 0.70098,-0.40514 1.2557,-0.46066 5.27577,-0.52803 4.85057,-0.0813 5.91798,0.0659 6.9843,0.96316 0.62859,0.528922 1.16864,1.815432 1.16864,2.783952 0,0.59148 -0.72787,2.06546 -1.22276,2.47619 -0.19813,0.16443 -0.88532,0.46953 -1.52709,0.678 -1.09927,0.35707 -1.17088,0.42639 -1.23632,1.19679 -0.0382,0.44977 -0.15925,0.81776 -0.26899,0.81776 -0.10974,0 -0.56597,-0.37768 -1.01384,-0.8393 z"
       style="fill:#439e96;fill-opacity:1;stroke-width:0.22381175" />
    <path
       id="path5337"
       d="m 33.782403,103.48302 c 0.23478,-0.23477 0.32,-0.55871 0.23554,-0.89525 -0.13206,-0.52616 -0.12757,-0.52735 1.99024,-0.52735 1.9218,0 2.14621,-0.0441 2.37213,-0.46625 0.19906,-0.37195 0.17101,-0.553 -0.13872,-0.89524 -0.35315,-0.39023 -0.72398,-0.42873 -4.10241,-0.42595 -2.04278,0.002 -3.93145,0.0614 -4.19704,0.1326 -0.55471,0.14881 -0.78303,0.75278 -0.48554,1.28436 0.12549,0.22424 0.11832,0.52465 -0.0186,0.78053 -0.16103,0.30089 -0.12917,0.54941 0.11514,0.89821 0.2972,0.42432 0.54934,0.48223 2.09958,0.48223 1.33612,0 1.85071,-0.0889 2.12971,-0.36789 z"
       style="fill:#ffffff;fill-opacity:1;stroke-width:0.22381175" />
    <path
       id="path5335"
       d="m 168.94568,106.54655 c -1.61587,-0.57516 -2.76005,-1.35289 -3.96976,-2.69838 -1.77803,-1.97759 -2.5331,-4.247762 -2.29325,-6.894692 0.58838,-6.493 7.24177,-10.30413 13.2148,-7.56959 3.10573,1.42185 5.2722,4.91772 5.2621,8.49107 -0.004,1.3498 -0.50644,3.050032 -1.3614,4.605212 l -0.74256,1.35072 0.80895,1.57669 c 0.44942,0.87595 0.69374,1.57614 0.54973,1.57545 -0.44061,-0.002 -2.00862,-0.44792 -2.86327,-0.81406 -0.77208,-0.33076 -0.89951,-0.31886 -2.49952,0.23339 -2.04851,0.70705 -4.37046,0.76188 -6.10582,0.14419 z"
       style="fill:#a5299a;fill-opacity:1;stroke-width:0.22381175" />
    <path
       id="path5333"
       d="m 172.63607,100.62345 c 1.76845,-1.477502 4.0438,-4.033732 4.0469,-4.546472 0.005,-0.81075 -1.14595,-1.92458 -1.98855,-1.92458 -0.58133,0 -0.98655,0.26541 -2.11934,1.38814 l -1.40059,1.38813 -0.43303,-0.4785 c -0.23818,-0.26317 -0.71116,-0.62232 -1.05107,-0.7981 -0.71558,-0.37003 -1.07925,-0.23117 -2.04074,0.77922 -0.84717,0.89027 -0.68423,1.53791 0.75726,3.01 2.12914,2.174342 2.81285,2.365452 4.22916,1.182162 z"
       style="fill:#f3f3f3;fill-opacity:1;stroke-width:0.22381175" />
    <path
       id="path5331"
       d="m 65.451563,104.27793 c -2.41246,-0.26283 -4.53888,-1.32204 -6.00401,-2.99074 -1.14853,-1.308112 -1.45186,-2.097702 -1.46792,-3.821162 -0.0123,-1.32231 0.082,-1.73778 0.59174,-2.60765 1.25787,-2.14639 3.47229,-3.57083 6.46899,-4.16121 3.58304,-0.7059 7.30116,0.34997 9.52958,2.7062 1.12264,1.18702 1.8484,2.79752 1.8484,4.1017 0,0.69022 -0.64408,2.569202 -1.03049,3.006292 -0.48111,0.54419 -0.37179,1.74408 0.25658,2.81631 0.54992,0.93836 0.55374,0.97086 0.11431,0.97086 -0.25006,0 -0.98449,-0.20137 -1.63207,-0.44751 -1.45211,-0.55191 -1.64079,-0.55281 -3.36873,-0.016 -1.66555,0.51738 -3.34013,0.65717 -5.30638,0.44295 z"
       style="fill:#547729;fill-opacity:1;stroke-width:0.22381175" />
    <path
       id="path5329"
       d="m 65.266083,98.109018 c 0.73228,-0.6627 0.37543,-1.6439 -0.59786,-1.6439 -1.30782,0 -1.32507,1.96435 -0.0176,2.0075 0.11341,0.004 0.39037,-0.15987 0.61549,-0.3636 z"
       style="fill:#ffffff;fill-opacity:1;stroke-width:0.22381175" />
    <path
       id="path5327"
       d="m 69.942513,98.247738 c 0.83858,-0.44879 0.4089,-1.78262 -0.57424,-1.78262 -1.02152,0 -1.35096,1.07668 -0.50973,1.6659 0.59021,0.4134 0.53978,0.40797 1.08397,0.11672 z"
       style="fill:#ffffff;fill-opacity:1;stroke-width:0.22381175" />
    <path
       id="path5325"
       d="m 67.913493,97.807988 c 0.39114,-0.73084 -0.0946,-1.38441 -0.96607,-1.29999 -0.54986,0.0533 -0.72933,0.1877 -0.78617,0.58888 -0.11768,0.8306 0.12079,1.15874 0.8421,1.15874 0.44152,0 0.75241,-0.15291 0.91014,-0.44763 z"
       style="fill:#ffffff;fill-opacity:1;stroke-width:0.22381175" />
    <path
       id="path5323"
       d="m 25.006202,103.37425 c 0,-0.92402 -0.23931,-1.23619 -1.13189,-1.47654 -3.49087,-0.93999 -3.93271,-5.705203 -0.6586,-7.103023 1.20223,-0.51326 10.31075,-0.41542 11.41144,0.12259 1.34965,0.65969 2.27286,2.57788 1.9191,3.98737 -0.21061,0.83912 -0.41912,0.48824 -0.46376,-0.78039 -0.0258,-0.73282 -0.20753,-1.32741 -0.55482,-1.81514 -0.87428,-1.22781 -1.46924,-1.34615 -6.76543,-1.34577 -4.09248,2.2e-4 -4.87125,0.0555 -5.53062,0.39167 -1.03639,0.52847 -1.61146,1.37411 -1.7327,2.54792 -0.18197,1.76194 1.06784,3.292133 2.88725,3.534953 0.76059,0.10151 0.96985,0.22652 1.02479,0.61221 0.10255,0.71987 0.6037,0.78824 1.26761,0.17295 0.57788,-0.53556 1.01337,-0.70158 1.01337,-0.38631 0,0.0877 -0.42383,0.59124 -0.94184,1.11906 -1.07176,1.09204 -1.7439,1.25332 -1.7439,0.41845 z"
       style="fill:#439e96;fill-opacity:1;stroke-width:0.22381175" />
    <path
       id="path5321"
       d="m 125.43311,75.203008 c 0,-0.36848 0.116,-0.46229 0.50357,-0.40724 0.27697,0.0393 0.50358,0.22259 0.50358,0.40724 0,0.18464 -0.22661,0.3679 -0.50358,0.40723 -0.38757,0.055 -0.50357,-0.0388 -0.50357,-0.40723 z"
       style="fill:#dcb97a;fill-opacity:1;stroke-width:0.22381175" />
    <path
       id="path5319"
       d="m 28.221803,74.046724 c -1.16807,-1.91731 -0.89958,-1.75335 -2.61057,-1.59433 -1.65232,0.15357 -2.38302,-0.0616 -3.17289,-0.93441 -0.25789,-0.28497 -0.63261,-1.57791 -1.02826,-3.54795 -1.5061,-7.499269 -1.57962,-8.342133 -0.81849,-9.383039 0.47651,-0.651675 0.71778,-0.173557 0.28345,0.561711 -0.50409,0.853348 -0.50049,0.90394 0.40067,5.644304 1.1118,5.848314 1.1685,6.052734 1.84559,6.653484 0.55829,0.49534 0.72516,0.52355 2.3536,0.39798 l 1.7527,-0.13516 0.70546,1.00084 c 0.38801,0.55047 0.82909,1.00085 0.9802,1.00085 0.1511,0 0.77669,-0.56318 1.39019,-1.25152 0.63525,-0.71273 1.26304,-1.21858 1.45828,-1.17501 0.238,0.0531 -0.12394,0.57264 -1.18377,1.69914 -0.83963,0.89245 -1.63656,1.62264 -1.77094,1.62264 -0.13439,0 -0.39774,-0.25179 -0.58522,-0.55953 z"
       style="fill:#2b2c9e;fill-opacity:1;stroke-width:0.22381175" />
    <path
       id="path5317"
       d="m 100.4781,73.572888 c -0.818787,-1.42374 -1.006117,-1.46219 -4.620297,-0.94828 -2.54854,0.36239 -2.63152,0.36063 -3.4833,-0.0739 -1.10929,-0.56592 -1.29454,-0.99587 -1.97548,-4.58512 -0.3074,-1.620298 -0.75925,-4.00351 -1.00412,-5.296023 -0.70209,-3.705992 -0.5702,-4.711665 0.71771,-5.472453 0.77103,-0.455454 2.71616,-0.490642 7.23212,-0.130824 1.47716,0.117693 4.397897,0.321646 6.490537,0.453225 2.09264,0.131579 4.30838,0.292585 4.92386,0.357788 2.28806,0.242392 3.00133,1.738903 2.35887,4.949106 -0.11823,0.590767 -0.4335,2.232348 -0.70059,3.647957 -0.2671,1.415614 -0.62529,2.849094 -0.79598,3.185524 -0.42168,0.83113 -1.42805,1.3053 -3.25802,1.53508 -1.74526,0.21914 -2.10832,0.44705 -3.59851,2.25897 -0.5887,0.7158 -1.19299,1.29809 -1.34287,1.29398 -0.14987,-0.004 -0.57464,-0.53287 -0.94393,-1.17501 z"
       style="fill:#db2100;fill-opacity:1;stroke-width:0.22381175" />
    <path
       id="path5315"
       d="m 98.612223,67.425548 c 1.2029,-1.303717 1.652697,-3.660838 0.95576,-5.00856 -0.3366,-0.65093 -1.46615,-1.314125 -2.23819,-1.314125 -1.22677,0 -2.55969,1.359144 -2.55805,2.608367 0.001,0.812748 0.73933,2.030622 1.41855,2.340096 0.3952,0.180061 0.49959,0.37313 0.4218,0.780062 -0.23506,1.22964 1.05907,1.61408 2.00013,0.59416 z"
       style="fill:#ffffff;fill-opacity:1;stroke-width:0.22381175" />
    <path
       id="path5313"
       d="m 104.11809,67.537448 c 1.78604,-1.90252 1.81848,-5.185847 0.0602,-6.095078 -1.82508,-0.943785 -3.81213,0.349775 -3.81213,2.481681 0,0.679177 0.16552,0.986564 0.91531,1.699821 0.50342,0.478892 0.86352,1.005669 0.80023,1.170616 -0.1771,0.46151 0.48779,1.24654 1.05578,1.24654 0.27931,0 0.72056,-0.22661 0.98058,-0.50358 z"
       style="fill:#ffffff;fill-opacity:1;stroke-width:0.22381175" />
    <path
       id="path5311"
       d="m 127.72718,74.607158 c -0.39044,-0.15755 -0.34983,-1.0817 0.0626,-1.42396 0.45331,-0.37622 1.44815,0.0548 1.44815,0.62737 0,0.75335 -0.70138,1.12317 -1.51073,0.79659 z"
       style="fill:#dcb97a;fill-opacity:1;stroke-width:0.22381175" />
    <path
       id="path5309"
       d="m 59.935433,72.278968 c -0.0614,-0.27696 -0.1389,-0.85608 -0.17212,-1.28691 -0.0586,-0.7603 -0.0997,-0.79265 -1.39482,-1.09993 -1.68539,-0.39986 -3.2986,-1.88056 -3.70889,-3.404244 -0.30557,-1.134817 -0.1811,-3.012723 0.22526,-3.398366 0.22446,-0.21302 0.25053,-0.01179 0.12976,1.001356 -0.30943,2.595664 0.87192,4.500544 3.22433,5.199134 0.66521,0.19755 1.39262,0.35918 1.61647,0.35918 0.28125,0 0.407,0.16721 0.407,0.54122 0,1.48772 0.54918,1.59842 1.82897,0.36868 0.91339,-0.87766 0.92321,-0.88082 2.95686,-0.9512 2.39473,-0.0829 3.27139,-0.008 3.27139,0.27997 0,0.11704 -1.1106,0.20895 -2.52489,0.20895 h -2.52489 l -1.32885,1.34287 c -1.43819,1.45335 -1.83274,1.61846 -2.00558,0.83929 z"
       style="fill:#737900;fill-opacity:1;stroke-width:0.22381175" />
    <path
       id="path5307"
       d="m 131.14031,73.200928 c -0.2462,-0.10077 -0.63949,-0.39653 -0.87399,-0.65725 -0.23449,-0.26072 -0.69155,-0.47404 -1.01568,-0.47404 -1.02508,0 -2.51991,-0.92705 -2.9919,-1.85548 -0.26508,-0.52142 -0.75649,-1.01425 -1.27519,-1.27887 -1.39841,-0.71342 -1.73339,-2.379569 -0.78725,-3.915719 0.30327,-0.492386 0.55454,-1.232211 0.55839,-1.644056 0.004,-0.411845 0.18323,-1.050899 0.39865,-1.420124 0.41632,-0.713556 1.75052,-1.523961 2.50897,-1.523961 0.70599,0 0.53907,0.375165 -0.23588,0.530154 -0.38083,0.07617 -1.03548,0.481545 -1.45478,0.900843 -0.66796,0.667961 -0.76236,0.903695 -0.76236,1.903798 0,0.627792 -0.0981,1.14144 -0.21806,1.14144 -0.11994,0 -0.38064,0.314382 -0.57934,0.698624 -0.6466,1.250385 0.0341,2.762691 1.44495,3.210501 0.21275,0.0675 0.55976,0.51475 0.77113,0.99384 0.4218,0.95602 1.43746,1.58758 2.55312,1.58758 0.38533,0 0.83566,0.19535 1.0847,0.47053 1.01298,1.11933 2.23203,1.35849 3.37429,0.66199 0.56391,-0.34385 0.96157,-0.40645 1.94025,-0.30544 1.02573,0.10587 1.36655,0.0433 2.04418,-0.37555 0.77517,-0.47907 1.20854,-0.50057 0.92761,-0.046 -0.29572,0.47848 -1.73866,0.93783 -2.9694,0.94529 -0.71998,0.004 -1.56084,0.15186 -1.86858,0.32778 -0.61357,0.35075 -1.87188,0.41144 -2.57383,0.12414 z"
       style="fill:#dcb97a;fill-opacity:1;stroke-width:0.22381175" />
    <path
       id="path5305"
       d="m 143.64279,72.629168 c -0.20087,-0.52346 0.0827,-1.00715 0.5905,-1.00715 0.56943,0 0.81715,0.56191 0.44526,1.01 -0.35539,0.42823 -0.87088,0.42681 -1.03576,-0.003 z"
       style="fill:#dcb97a;fill-opacity:1;stroke-width:0.22381175" />
    <path
       id="path5303"
       d="m 32.140593,71.314978 c -0.25296,-0.53816 -0.62266,-1.04092 -0.82155,-1.11724 -0.1989,-0.0763 -1.36201,0.0115 -2.5847,0.19513 -2.97637,0.44704 -3.83806,0.42679 -4.51556,-0.10614 -0.77632,-0.61064 -0.95615,-1.16858 -1.73381,-5.379065 -0.37513,-2.031091 -0.79563,-4.300167 -0.93444,-5.042389 -0.21677,-1.159043 -0.19917,-1.452411 0.1247,-2.078703 0.75387,-1.457838 0.86281,-1.467368 9.86885,-0.863374 4.43148,0.297197 8.33473,0.65191 8.6739,0.788247 0.34706,0.139504 0.78095,0.592347 0.99238,1.035731 0.33126,0.694647 0.34228,0.966623 0.0932,2.299154 -0.15538,0.831221 -0.48921,2.619179 -0.74183,3.97324 -0.25262,1.354061 -0.59819,2.686439 -0.76792,2.960849 -0.42067,0.6801 -1.30434,1.09588 -2.74358,1.2909 -1.07305,0.1454 -1.32345,0.28847 -2.23812,1.2788 -0.56644,0.6133 -1.11043,1.25644 -1.20887,1.42921 -0.35699,0.62655 -0.99124,0.33847 -1.46263,-0.66435 z"
       style="fill:#2b2c9e;fill-opacity:1;stroke-width:0.22381175" />
    <path
       id="path5301"
       d="m 32.602093,65.858863 c 1.39611,-1.289796 3.35559,-3.337575 3.58729,-3.748952 0.22154,-0.393336 -0.11096,-1.235904 -0.69549,-1.762412 -0.84475,-0.760898 -1.52012,-0.54162 -3.07341,0.997864 l -1.43023,1.417512 -0.74089,-0.7181 c -0.95946,-0.929947 -1.76078,-0.942299 -2.66205,-0.04103 -0.54609,0.546087 -0.64818,0.795044 -0.52776,1.286917 0.27492,1.122976 3.02891,3.628465 3.99055,3.630471 0.22069,4.47e-4 0.91909,-0.477561 1.55199,-1.06227 z"
       style="fill:#ffffff;fill-opacity:1;stroke-width:0.22381175" />
    <path
       id="path5299"
       d="m 167.18343,70.467219 c -2.98841,-1.02781 -4.84415,-2.85794 -5.32482,-5.251356 -0.5393,-2.685403 1.15894,-5.353293 4.34138,-6.820175 1.40098,-0.645751 1.90547,-0.755528 3.87456,-0.843101 3.29471,-0.146532 5.60077,0.593985 7.60613,2.442455 2.0672,1.905482 2.50856,4.376402 1.23304,6.903177 l -0.71171,1.4099 0.66087,1.33337 0.66088,1.33336 -0.81084,-0.15081 c -0.44595,-0.0829 -1.28005,-0.352 -1.85354,-0.59789 -0.83802,-0.35931 -1.13697,-0.39663 -1.52282,-0.19013 -1.87587,1.00393 -5.87319,1.21534 -8.15313,0.4312 z"
       style="fill:#004a00;fill-opacity:1;stroke-width:0.22381175" />
    <path
       id="path5297"
       d="m 169.74811,66.627329 c 0.37916,-0.52316 0.74478,-1.227634 0.81248,-1.565505 l 0.1231,-0.614309 0.81155,0.712176 c 0.45659,0.400674 0.82139,0.935378 0.83404,1.222488 0.0308,0.69891 0.48987,1.19635 1.10408,1.19635 1.12429,0 2.51156,-2.760131 2.27473,-4.525829 -0.22181,-1.653685 -2.03518,-2.844663 -3.32177,-2.181659 -0.28993,0.149406 -0.78488,0.51154 -1.09988,0.804744 l -0.57273,0.533098 -0.64148,-0.669565 c -0.82906,-0.865347 -1.83865,-1.058092 -2.9012,-0.553878 -0.95489,0.453123 -1.46668,1.317159 -1.46668,2.476117 0,0.676149 0.16516,0.986224 0.89525,1.680737 0.54678,0.520141 0.89524,1.055485 0.89524,1.375355 0,1.36993 1.29423,1.43293 2.25327,0.10968 z"
       style="fill:#fefefe;fill-opacity:1;stroke-width:0.22381175" />
    <path
       id="path5295"
       d="m 139.78022,72.784187 c -0.16861,-0.10689 -0.26566,-0.46753 -0.22382,-0.83175 0.0544,-0.47313 0.24269,-0.70206 0.71279,-0.86645 0.54671,-0.19118 0.6985,-0.14982 1.05188,0.28658 0.81188,1.00263 -0.41419,2.12586 -1.54085,1.41162 z"
       style="fill:#dcb97a;fill-opacity:1;stroke-width:0.22381175" />
    <path
       id="path5293"
       d="m 69.279033,69.819148 -1.4321,-1.3305 h -3.80151 c -2.20113,0 -4.16046,-0.10754 -4.65417,-0.25546 -3.78187,-1.133078 -4.53365,-6.218889 -1.24423,-8.417242 l 1.0884,-0.727388 6.85692,0.0063 c 6.70611,0.0062 6.87907,0.01761 7.86407,0.520714 1.84214,0.940882 2.87358,3.446658 2.23653,5.433406 -0.59248,1.847783 -1.753,2.83419 -3.91512,3.32777 l -1.11906,0.25546 -0.0694,1.10323 c -0.0382,0.60678 -0.13887,1.1732 -0.22381,1.25871 -0.0849,0.0855 -0.79888,-0.44324 -1.58654,-1.17501 z"
       style="fill:#737900;fill-opacity:1;stroke-width:0.22381175" />
    <path
       id="path5291"
       d="m 63.398493,63.807877 c 0.0939,-0.631241 -0.32973,-1.138331 -0.95103,-1.138331 -0.63248,0 -1.02451,0.405273 -1.02451,1.059126 0,1.023849 1.8241,1.096982 1.97554,0.07921 z"
       style="fill:#ffffff;fill-opacity:1;stroke-width:0.22381175" />
    <path
       id="path5289"
       d="m 65.216133,64.466257 c 0.54913,-0.293885 0.73025,-0.842712 0.45057,-1.365301 -0.29606,-0.553191 -1.15348,-0.554437 -1.65306,-0.0024 -0.50766,0.560962 -0.14229,1.350713 0.72525,1.567631 0.0389,0.0097 0.25363,-0.08025 0.47724,-0.199924 z"
       style="fill:#ffffff;fill-opacity:1;stroke-width:0.22381175" />
    <path
       id="path5287"
       d="m 67.913493,64.236228 c 0.53969,-0.539686 0.55663,-0.75427 0.0959,-1.214978 -0.92188,-0.921885 -2.26698,0.04128 -1.56144,1.118081 0.43352,0.661634 0.87181,0.690614 1.46552,0.0969 z"
       style="fill:#fbfbfb;fill-opacity:1;stroke-width:0.22381175" />
    <path
       id="path5285"
       d="m 70.560463,63.807877 c 0.0939,-0.631241 -0.32973,-1.138331 -0.95102,-1.138331 -0.63248,0 -1.02451,0.405273 -1.02451,1.059126 0,1.023849 1.8241,1.096982 1.97553,0.07921 z"
       style="fill:#ffffff;fill-opacity:1;stroke-width:0.22381175" />
    <path
       id="path5283"
       d="m 135.3212,70.971157 c -0.68777,-0.31218 -1.24669,-0.39993 -2.0143,-0.31624 -1.38101,0.15057 -2.447,-0.41603 -3.15251,-1.67565 -0.3253,-0.5808 -0.85302,-1.102667 -1.39421,-1.378763 -1.63487,-0.834048 -2.08048,-2.951404 -0.93597,-4.447339 0.51796,-0.676993 0.61548,-1.023205 0.61548,-2.184884 0,-1.161431 0.0888,-1.476678 0.55953,-1.987198 0.87903,-0.953259 1.82394,-1.265084 3.02077,-0.996868 0.91311,0.204631 1.09565,0.172207 1.85332,-0.329189 1.70649,-1.129307 3.45257,-0.928166 5.09643,0.587089 0.84019,0.774467 1.07298,0.880028 1.65753,0.751641 1.67887,-0.368744 3.14696,0.790283 3.31896,2.620251 0.0747,0.795103 0.2841,1.389511 0.63929,1.81497 0.98757,1.182975 0.50276,2.822732 -1.07593,3.639105 -0.36961,0.191131 -0.81225,0.688246 -0.98855,1.110192 -0.39204,0.938273 -1.02679,1.374233 -2.29578,1.576783 -0.56236,0.0898 -1.17521,0.36914 -1.45478,0.66319 -0.26569,0.27945 -0.88593,0.61704 -1.37832,0.75021 -1.10891,0.29991 -0.94017,0.31598 -2.07096,-0.1973 z"
       style="fill:#dcb97a;fill-opacity:1;stroke-width:0.22381175" />
    <path
       id="path5281"
       d="m 137.46683,66.191229 c 0.15842,-0.190884 0.21601,-0.572665 0.13505,-0.895247 -0.13649,-0.543824 -0.10459,-0.562437 0.96386,-0.562437 0.60776,0 1.26433,-0.06113 1.45904,-0.135851 0.38788,-0.148846 0.48525,-1.099498 0.13479,-1.316092 -0.138,-0.08529 -0.11787,-0.297792 0.0543,-0.573513 0.20202,-0.323479 0.20916,-0.540236 0.0273,-0.828918 -0.21314,-0.338379 -0.69404,-0.399515 -3.57935,-0.455052 -1.83322,-0.03528 -3.54863,-0.01097 -3.81202,0.05402 -0.63352,0.156335 -0.85617,0.785299 -0.42915,1.212314 0.30328,0.303281 0.29926,0.383681 -0.0378,0.756124 -0.31785,0.351223 -0.33184,0.489328 -0.089,0.87825 0.20672,0.331002 0.21973,0.529969 0.046,0.703678 -0.36594,0.365946 -0.29065,0.997437 0.14949,1.253793 0.21541,0.125471 1.36131,0.231191 2.54643,0.234933 1.64022,0.0052 2.22071,-0.07267 2.43096,-0.326004 z"
       style="fill:#ffffff;fill-opacity:1;stroke-width:0.22381175" />
    <path
       id="path5279"
       d="m 158.43796,63.649306 c 0.64391,-1.552058 0.64796,-1.587868 0.26982,-2.384748 -0.97898,-2.063043 -0.0507,-4.328436 2.23316,-5.44986 1.14725,-0.563323 1.55837,-0.642846 3.3235,-0.642846 2.12382,0 3.33139,0.403533 4.53219,1.514516 0.92577,0.856523 0.54839,1.132555 -0.41776,0.305566 -2.16484,-1.85302 -5.46841,-1.976918 -7.99047,-0.29968 -0.87636,0.582804 -1.60734,1.876152 -1.60734,2.843927 0,0.379097 0.20107,1.08341 0.44683,1.565143 0.24577,0.48173 0.42202,1.107187 0.39167,1.389906 -0.0478,0.445674 0.049,0.516641 0.72818,0.533646 1.29735,0.03248 1.56668,0.08295 1.56668,0.293569 0,0.1107 -0.42804,0.257109 -0.9512,0.325351 -0.52316,0.06824 -1.34459,0.191952 -1.8254,0.27491 -0.79492,0.137154 -0.85839,0.112723 -0.69986,-0.2694 z"
       style="fill:#004a00;fill-opacity:1;stroke-width:0.22381175" />
    <path
       id="path5277"
       d="m 32.418089,155.1259 -2.09183,-2.10056 -3.61095,-0.0941 c -3.83277,-0.0999 -4.42717,-0.24588 -5.44671,-1.33782 -1.08461,-1.16162 -1.18578,-1.81257 -1.18445,-7.62062 7.4e-4,-3.18946 0.10077,-5.79306 0.24215,-6.30225 0.33861,-1.21948 1.66889,-2.57541 2.77806,-2.83161 0.49239,-0.11374 4.26921,-0.20698 8.39294,-0.20721 6.98968,-4.1e-4 7.56373,0.0295 8.47226,0.4418 1.11668,0.50671 1.8206,1.28799 2.19755,2.43906 0.17051,0.52066 0.2686,2.77358 0.27977,6.42569 0.0187,6.13248 -0.0595,6.61553 -1.25139,7.72149 -1.02376,0.94998 -1.63758,1.16139 -3.76718,1.29746 l -2.0143,0.12871 -0.0643,2.07026 c -0.0556,1.78961 -0.11691,2.07026 -0.45205,2.07026 -0.21323,0 -1.32901,-0.94526 -2.47951,-2.10056 z"
       style="fill:#8dc7b6;fill-opacity:1;stroke-width:0.22381175" />
    <path
       id="path5269"
       d="m 167.54873,40.394122 c -8.22376,-1.875941 -11.58872,-11.724305 -6.2393,-18.260844 5.17856,-6.327767 15.35354,-5.028442 18.90287,2.413861 0.79008,1.656658 0.84034,1.894448 0.91457,4.326832 0.0669,2.192019 0.006,2.789346 -0.41122,4.026607 -0.26937,0.799023 -0.78267,1.886759 -1.14065,2.417196 -0.35799,0.530433 -0.65089,1.148507 -0.65089,1.373496 0,0.556694 0.59804,1.946158 1.25165,2.908025 0.29637,0.436142 0.53885,0.867803 0.53885,0.959246 0,0.248256 -1.2328,-0.02189 -3.27491,-0.71763 -1.61864,-0.551468 -1.89118,-0.587377 -2.46193,-0.324378 -2.29211,1.056202 -5.16058,1.395053 -7.42904,0.877589 z"
       style="fill:#3f989c;fill-opacity:1;stroke-width:0.22381175" />
    <path
       id="path5267"
       d="m 168.36693,32.707012 c 0.16908,-0.107188 0.26577,-0.468295 0.22381,-0.835868 l -0.0739,-0.647149 -1.86814,-0.06536 c -1.95715,-0.06847 -2.49619,0.118318 -2.49619,0.864978 0,0.225005 0.17625,0.511757 0.39167,0.637226 0.47328,0.275662 3.40486,0.311067 3.82272,0.04617 z"
       style="fill:#fbfbfb;fill-opacity:1;stroke-width:0.22381175" />
    <path
       id="path5265"
       d="m 170.51401,32.645862 c 0.43034,-0.196072 0.64093,-0.192404 0.89147,0.01553 0.53033,0.440128 1.29571,-0.08958 1.20936,-0.836973 -0.0769,-0.665733 -0.86442,-0.943165 -1.40462,-0.494837 -0.20893,0.173396 -0.34867,0.178747 -0.44852,0.01719 -0.19675,-0.318352 -1.08575,-0.297083 -1.41673,0.03389 -0.38956,0.389562 -0.32926,1.016707 0.1231,1.280181 0.48871,0.28465 0.38508,0.286134 1.04594,-0.01497 z"
       style="fill:#fbfbfb;fill-opacity:1;stroke-width:0.22381175" />
    <path
       id="path5263"
       d="m 175.43673,30.080986 c 0.41723,-0.160108 0.46916,-1.002356 0.0854,-1.386068 -0.19371,-0.193718 -1.74075,-0.268574 -5.55053,-0.268574 -5.42099,0 -5.8191,0.06125 -5.8191,0.895247 0,0.83258 0.40136,0.895247 5.73365,0.895247 2.85809,0 5.35582,-0.06113 5.55054,-0.135852 z"
       style="fill:#fbfbfb;fill-opacity:1;stroke-width:0.22381175" />
    <path
       id="path5261"
       d="m 175.74982,26.802055 c 0.052,-0.45186 -0.0488,-0.661648 -0.3763,-0.783341 -0.24601,-0.09141 -2.84493,-0.115848 -5.7754,-0.0543 -4.91202,0.103167 -5.33417,0.143513 -5.40577,0.51665 -0.20323,1.059074 -0.18868,1.061564 5.8297,0.997934 l 5.65679,-0.05981 z"
       style="fill:#fbfbfb;fill-opacity:1;stroke-width:0.22381175" />
    <path
       id="path5259"
       d="m 68.577618,37.245401 -1.87087,-1.826112 -2.22284,-4.47e-4 c -2.4774,-4.48e-4 -3.56673,-0.359751 -4.06958,-1.342524 -0.21148,-0.413317 -0.27078,-1.771891 -0.22693,-5.199024 l 0.0594,-4.639395 0.62057,-0.620081 0.62057,-0.620081 h 6.05619 6.05619 l 0.65308,0.73092 0.65307,0.730919 v 4.646716 c 0,3.836458 -0.0605,4.733151 -0.34719,5.142408 -0.48102,0.686751 -1.10997,0.982281 -2.43459,1.143965 l -1.13492,0.13853 -0.0674,1.566683 c -0.037,0.861675 -0.15882,1.658245 -0.27062,1.770158 -0.12191,0.122029 -0.95216,-0.527491 -2.07414,-1.622635 z"
       style="fill:#6f00a6;fill-opacity:1;stroke-width:0.22381175" />
    <path
       id="path5253"
       d="m 97.33383,39.098489 c -0.0488,-0.153871 -0.13027,-0.868148 -0.18095,-1.587282 -0.10274,-1.457702 -0.23472,-1.601463 -1.64806,-1.795185 -2.93861,-0.402781 -5.2301,-3.17607 -5.2301,-6.329743 0,-1.402994 1.11285,-4.108166 1.69002,-4.108166 0.45487,0 0.41071,0.243269 -0.2912,1.604247 -1.84763,3.58249 0.48073,7.760898 4.5592,8.181835 0.66046,0.06817 1.29533,0.237791 1.41082,0.376943 0.11549,0.139151 0.24208,0.704246 0.28132,1.255766 0.0444,0.624166 0.17869,1.002761 0.35567,1.002761 0.15639,0 0.88259,-0.585791 1.61378,-1.301758 1.15129,-1.127322 1.42809,-1.292274 2.06568,-1.230965 0.86031,0.08272 0.87351,0.449504 0.0244,0.676603 -0.32532,0.087 -1.33898,0.917904 -2.2526,1.846447 -1.60979,1.6361 -2.21318,1.990521 -2.39794,1.408497 z"
       style="fill:#c257b9;fill-opacity:1;stroke-width:0.22381175" />
    <path
       id="path5251"
       d="m 102.43259,35.979994 -1.62262,-1.622635 -2.180247,-0.13214 c -1.73531,-0.105174 -2.41407,-0.251368 -3.32609,-0.716386 -4.32304,-2.20421 -4.30755,-8.416426 0.0268,-10.75173 0.82554,-0.444793 1.28351,-0.488287 5.881837,-0.558612 4.20585,-0.06432 5.17478,-0.01707 6.18842,0.301756 1.54739,0.486714 2.55332,1.329089 3.37359,2.825065 0.56429,1.029156 0.65651,1.435979 0.65215,2.877224 -0.006,1.889567 -0.42441,2.93712 -1.68451,4.214427 -1.00197,1.01566 -2.21069,1.592566 -3.73357,1.781987 l -1.27783,0.158942 -0.0658,1.622369 c -0.0441,1.087537 -0.15539,1.622369 -0.33765,1.622369 -0.14954,0 -1.00207,-0.730186 -1.89452,-1.622636 z"
       style="fill:#c257b9;fill-opacity:1;stroke-width:0.22381175" />
    <path
       id="path5249"
       d="m 102.70164,30.893816 c 0.8162,-0.310319 0.79138,-1.231752 -0.0414,-1.535901 -0.50788,-0.185493 -0.30967,-0.227883 1.13377,-0.242462 1.91172,-0.01931 2.61508,-0.259597 2.61508,-0.893387 0,-0.63202 -0.45885,-0.880143 -1.79728,-0.97188 l -1.22418,-0.08391 1.24215,-0.0414 c 1.66074,-0.05535 2.24582,-0.661979 1.4276,-1.480191 -0.29252,-0.292527 -1.00084,-0.351705 -4.20964,-0.351705 -4.081827,0 -4.746707,0.148292 -4.582007,1.021947 0.0449,0.238056 0.29902,0.528546 0.56475,0.645532 l 0.48316,0.212701 -0.48446,0.240524 c -0.65941,0.32738 -0.73794,1.11193 -0.15236,1.52209 l 0.46948,0.328838 -0.47322,0.12375 c -0.36588,0.09568 -0.45679,0.267135 -0.40079,0.755879 l 0.0724,0.632127 2.35003,0.124048 c 1.292507,0.06823 2.368637,0.143763 2.391397,0.167859 0.0228,0.02409 0.29973,-0.05441 0.61548,-0.174462 z"
       style="fill:#fefefe;fill-opacity:1;stroke-width:0.22381175" />
    <path
       id="path5247"
       d="m 131.25221,36.734032 c -2.91917,-0.953429 -5.03913,-2.540037 -6.06288,-4.537528 -0.72615,-1.416843 -0.84781,-3.82796 -0.25893,-5.131548 1.10584,-2.44795 3.11309,-4.160226 6.05538,-5.16552 1.99367,-0.681181 6.0011,-0.729328 7.87603,-0.09463 3.12532,1.057982 5.04682,2.550264 6.07648,4.719138 0.99877,2.103813 0.8053,4.4979 -0.51827,6.413185 -0.56851,0.822671 -0.51035,1.448248 0.2655,2.855806 0.36736,0.666471 0.61408,1.265609 0.54828,1.331414 -0.16752,0.167523 -1.98624,-0.342108 -3.04307,-0.852712 l -0.88304,-0.426636 -1.61461,0.585223 c -2.15027,0.779373 -6.50492,0.936106 -8.44087,0.303804 z"
       style="fill:#0071b6;fill-opacity:1;stroke-width:0.22381175" />
    <path
       id="path5245"
       d="m 137.39068,29.398474 c 1.17841,-1.25023 2.14257,-2.400526 2.14257,-2.556213 0,-0.448727 -0.69904,-1.101654 -1.17945,-1.101654 -0.24333,0 -1.20668,0.747419 -2.16355,1.678588 -0.9487,0.923223 -1.80713,1.678588 -1.90762,1.678588 -0.10049,0 -0.61977,-0.402861 -1.15394,-0.895247 -0.53418,-0.492386 -1.12455,-0.895247 -1.31195,-0.895247 -0.4294,0 -1.23596,0.791525 -1.23596,1.212928 0,0.411641 2.15662,2.772114 3.00362,3.287541 0.89494,0.544593 1.21014,0.345076 3.80628,-2.409284 z"
       style="fill:#fafafa;fill-opacity:1;stroke-width:0.22381175" />
    <path
       id="path879"
       d="m 57.781247,31.130394 c 0,-1.297174 -0.17611,-1.584311 -0.97515,-1.589965 -0.38689,-0.0027 -0.95523,-0.198192 -1.26297,-0.434345 -0.54371,-0.417225 -0.56163,-0.519955 -0.63374,-3.631965 -0.0889,-3.835221 0.10829,-4.732241 1.11747,-5.084043 0.86761,-0.302452 7.77533,-0.327131 8.55535,-0.03057 0.30986,0.117808 0.71928,0.515668 0.90982,0.884132 0.38845,0.751171 0.46581,2.035036 0.12263,2.035036 -0.1231,0 -0.22381,-0.24705 -0.22381,-0.548999 0,-0.827265 -0.43224,-1.610255 -1.04237,-1.88825 -0.32929,-0.150036 -2.00841,-0.248492 -4.23792,-0.248492 -3.62205,0 -3.70302,0.01048 -4.24189,0.549356 -0.5307,0.530702 -0.54935,0.655256 -0.54935,3.668099 0,3.662728 0.16336,4.047767 1.81063,4.267586 0.91145,0.121626 0.99228,0.185943 1.05573,0.840051 0.10304,1.062217 0.60211,1.083179 1.69977,0.0714 0.83122,-0.766198 1.47678,-1.116465 1.47678,-0.801271 0,0.0497 -0.62947,0.702449 -1.39882,1.450546 -1.68232,1.635845 -2.18216,1.748471 -2.18216,0.491694 z"
       style="fill:#6f00a6;fill-opacity:1;stroke-width:0.22381175" />
    <text
       id="text5365"
       y="32.79464"
       x="64.444946"
       style="font-style:normal;font-weight:normal;font-size:10.58333302px;line-height:1.25;font-family:sans-serif;letter-spacing:0px;word-spacing:0px;fill:#fcfcfc;fill-opacity:1;stroke:none;stroke-width:0.26458332"
       xml:space="preserve"><tspan
         style="font-style:normal;font-variant:normal;font-weight:bold;font-stretch:normal;font-size:10.58333302px;font-family:monospace;-inkscape-font-specification:'monospace, Bold';font-variant-ligatures:normal;font-variant-caps:normal;font-variant-numeric:normal;font-feature-settings:normal;text-align:justify;writing-mode:lr-tb;text-anchor:start;fill:#fcfcfc;fill-opacity:1;stroke-width:0.26458332"
         y="32.79464"
         x="64.444946"
         id="tspan5363">?</tspan></text>
    <text
       id="text5365-5"
       y="102.29174"
       x="131.57761"
       style="font-style:normal;font-weight:normal;font-size:10.58333302px;line-height:1.25;font-family:sans-serif;letter-spacing:0px;word-spacing:0px;fill:#fcfcfc;fill-opacity:1;stroke:none;stroke-width:0.26458332"
       xml:space="preserve"><tspan
         style="font-style:normal;font-variant:normal;font-weight:bold;font-stretch:normal;font-size:10.58333302px;font-family:monospace;-inkscape-font-specification:'monospace, Bold';font-variant-ligatures:normal;font-variant-caps:normal;font-variant-numeric:normal;font-feature-settings:normal;text-align:justify;writing-mode:lr-tb;text-anchor:start;fill:#fcfcfc;fill-opacity:1;stroke-width:0.26458332"
         y="102.29174"
         x="131.57761"
         id="tspan5363-6">?</tspan></text>
    <path
       id="path993"
       d="m 46.74382,250.63431 c -0.805976,0.005 -1.301229,0.55527 -1.301229,1.44704 0,0.72319 -0.650472,1.71667 -1.511742,2.30866 -0.668721,0.45964 -0.721299,0.47519 -0.936933,0.28004 -0.171708,-0.15539 -0.463604,-0.20666 -1.176417,-0.20666 -1.502635,0 -1.442699,-0.15169 -1.442699,3.64634 0,2.98711 0.01293,3.16484 0.247209,3.39913 0.204242,0.20423 0.412092,0.24721 1.19549,0.24721 0.685114,0 1.007197,-0.0535 1.160966,-0.19265 0.192692,-0.17439 0.256423,-0.17439 0.67379,0 0.373841,0.1562 1.020414,0.19265 3.421821,0.19265 h 2.960959 l 0.361158,-0.3614 c 0.266505,-0.2665 0.361398,-0.47882 0.361398,-0.80947 0,-0.24654 0.08863,-0.61969 0.196995,-0.82925 0.113013,-0.21858 0.172069,-0.54543 0.138573,-0.7665 -0.0321,-0.21195 0.02228,-0.54311 0.120707,-0.73583 0.09842,-0.19273 0.167508,-0.6099 0.153541,-0.92704 -0.01396,-0.31713 0.01449,-0.77635 0.06325,-1.02046 0.115889,-0.58023 -0.114361,-1.41274 -0.457,-1.65273 -0.206647,-0.14476 -0.617477,-0.19 -1.726844,-0.19 -0.800665,0 -1.455462,-0.0417 -1.454527,-0.0927 7.47e-4,-0.051 0.08417,-0.36566 0.185407,-0.69938 0.35883,-1.18285 0.152679,-2.41719 -0.47752,-2.8586 -0.142229,-0.0996 -0.482557,-0.1798 -0.756353,-0.1784 z"
       style="fill:#000000;stroke-width:0.12360466" />
    <path
       id="path991"
       d="m 46.779549,251.13742 c 0.09139,-0.002 0.181163,0.0316 0.311185,0.10115 0.704754,0.37718 0.681884,2.00269 -0.04418,3.14757 l -0.362607,0.57168 h 1.859622 c 1.022714,0 1.959694,0.0537 2.082209,0.11925 0.277206,0.14835 0.411512,0.76803 0.255416,1.17859 -0.101403,0.26673 -0.193879,0.30901 -0.676687,0.30901 -0.307601,0 -0.559359,0.0556 -0.559359,0.12361 0,0.068 0.198416,0.12361 0.440824,0.12361 0.661373,0 0.918827,0.18645 0.918827,0.66509 0,0.54373 -0.322166,0.81816 -0.96035,0.81816 -0.279561,0 -0.54271,0.0556 -0.584708,0.1236 -0.04589,0.0743 0.113991,0.12361 0.400508,0.12361 0.556868,0 0.773736,0.17228 0.773736,0.61513 0,0.61637 -0.309525,0.8668 -1.088542,0.88044 -0.538806,0.009 -0.631316,0.0355 -0.394714,0.11129 0.169956,0.0544 0.489785,0.10452 0.710727,0.11129 0.458063,0.0141 0.530999,0.26715 0.209307,0.72642 -0.189329,0.27013 -0.23745,0.27488 -2.997413,0.27208 -2.467718,-0.002 -2.865849,-0.0303 -3.311493,-0.23273 -0.2786,-0.12653 -0.535592,-0.30613 -0.57119,-0.39906 -0.09555,-0.24953 -0.122817,-4.35347 -0.03211,-4.837 0.06253,-0.33334 0.20378,-0.49045 0.717486,-0.79811 0.730478,-0.4375 1.50764,-1.17323 1.767884,-1.67374 0.0977,-0.1879 0.247549,-0.68781 0.333153,-1.11075 0.124612,-0.61568 0.220455,-0.80537 0.480658,-0.95142 0.137261,-0.077 0.230416,-0.11622 0.321807,-0.11877 z"
       style="fill:#ffffff;stroke-width:0.12360466" />
    <path
       id="path989"
       d="m 87.467391,258.7961 c -3.16902,-0.002 -6.30498,0.13661 -6.85126,0.4191 -0.81632,0.42214 -1.48293,1.71412 -1.28158,2.48408 0.0706,0.26992 -0.03,0.777 -0.22376,1.12655 -0.19371,0.34956 -0.356732,1.14734 -0.361732,1.77302 -0.0052,0.62569 -0.18128,1.46991 -0.391192,1.87585 -0.276326,0.53432 -0.367628,1.55159 -0.330729,3.68505 0.04804,2.77955 0.08996,2.98544 0.731739,3.62717 0.654994,0.65492 0.800964,0.68091 3.902604,0.69091 1.77219,0.006 3.22202,0.0513 3.22202,0.1018 0,0.0505 -0.12772,0.42699 -0.2837,0.83664 -1.26729,3.32834 -0.42834,6.84241 1.73891,7.2838 0.64991,0.13236 1.90197,-0.18735 2.42156,-0.61857 0.59728,-0.4957 0.84449,-1.09481 1.03456,-2.50476 0.23076,-1.71174 0.89926,-2.97332 2.19729,-4.146 1.6088,-1.4535 2.43765,-1.82082 3.06699,-1.36064 0.33326,0.2437 1.21495,0.37156 2.55592,0.37156 1.896159,0 2.087199,-0.0513 2.595189,-0.69712 0.52077,-0.66204 0.54828,-1.02223 0.54828,-7.15563 v -6.45852 l -0.64957,-0.64958 c -0.57128,-0.57123 -0.88256,-0.64957 -2.586919,-0.64957 -1.2878,0 -2.12619,0.13239 -2.50011,0.39429 -0.49822,0.34897 -0.67011,0.34897 -1.50533,0 -0.67813,-0.28352 -3.88016,-0.42719 -7.04918,-0.42943 z"
       style="fill:#000000;stroke-width:0.26458335" />
    <path
       id="path987"
       d="m 41.858056,254.96167 h 2.47e-4 c 0.37203,3e-5 0.743856,0.0481 0.840125,0.14437 0.21613,0.21612 0.210484,5.82735 -0.006,6.00473 -0.213654,0.175 -1.504206,0.17306 -1.679768,-0.002 -0.206035,-0.20604 -0.201312,-5.79593 0.0051,-6.00231 0.09627,-0.0963 0.468338,-0.14434 0.840366,-0.14437 z"
       style="fill:#ffffff;stroke-width:0.12360466" />
    <path
       id="path985"
       d="m 84.198341,259.90817 c 0.98732,-0.008 2.26686,0.006 3.93412,0.031 4.78202,0.0709 5.69451,0.15122 6.54844,0.57567 l 0.99219,0.493 -5.3e-4,5.72471 v 5.72471 l -1.34566,0.75551 c -2.83794,1.59397 -4.36946,3.56867 -4.65811,6.00584 -0.0967,0.81651 -0.36624,1.59357 -0.65216,1.87947 -0.26805,0.26805 -0.76669,0.48731 -1.10794,0.48731 -2.11062,0 -2.35795,-4.45091 -0.39791,-7.15667 l 0.75706,-1.04541 h -4.10258 c -3.74993,0 -4.14809,-0.0455 -4.63176,-0.52917 -0.63287,-0.63287 -0.691005,-1.9171 -0.11317,-2.49494 0.22867,-0.22867 0.82399,-0.41548 1.32292,-0.41548 0.49893,0 0.90692,-0.11906 0.90692,-0.26458 0,-0.14552 -0.46752,-0.26458 -1.03921,-0.26458 -1.3551,0 -1.975253,-0.59817 -1.759583,-1.69706 0.211673,-1.07848 0.803073,-1.47794 2.187983,-1.47794 0.62703,0 1.13998,-0.11907 1.13998,-0.26459 0,-0.14551 -0.47207,-0.26458 -1.04903,-0.26458 -1.18795,0 -1.75478,-0.658 -1.48673,-1.72599 0.26541,-1.05749 0.88456,-1.44901 2.2903,-1.44901 0.7172,0 1.30379,-0.0927 1.30379,-0.20567 0,-0.11302 -0.47868,-0.15967 -1.0635,-0.10387 -1.41162,0.13462 -1.89474,-0.26904 -1.53996,-1.28674 0.27093,-0.77719 0.60215,-1.00654 3.56413,-1.03095 z"
       style="fill:#ffffff;stroke-width:0.26458335" />
    <path
       id="path983"
       d="m 96.532981,260.15415 h 1.95131 1.951299 v 6.45387 c 0,5.64111 -0.0528,6.47421 -0.41858,6.61458 -0.733859,0.28162 -3.168159,0.17222 -3.497459,-0.15709 -0.34134,-0.34133 -0.46901,-10.49914 -0.15193,-12.08454 z"
       style="fill:#ffffff;stroke-width:0.26458335" />
    <path
       id="path981"
       d="m 98.469821,260.94738 c -0.48287,0 -0.68007,0.14073 -0.68007,0.48525 0,0.26679 0.0835,0.56819 0.18553,0.67024 0.35819,0.3582 1.00615,0.0238 1.08985,-0.56276 0.0688,-0.48194 -0.0424,-0.59273 -0.59531,-0.59273 z"
       style="fill:#000000;stroke-width:0.26458335" />
    <path
       id="path908"
       d="m 41.814601,260.18687 c -0.02635,-1.2e-4 -0.04969,0.005 -0.06832,0.0169 -0.184639,0.11413 -0.171445,0.52953 0.01907,0.60016 0.08498,0.0315 0.23602,-0.0194 0.335568,-0.11323 0.158669,-0.14956 0.156305,-0.19543 -0.01907,-0.37081 -0.08251,-0.0825 -0.188194,-0.13257 -0.267246,-0.13302 z"
       style="fill:#000000;stroke-width:0.12360466" />
    <path
       id="path5301-3"
       d="m 32.657758,146.4187 c 1.39611,-1.28979 3.35559,-3.33757 3.58729,-3.74895 0.22154,-0.39333 -0.11096,-1.2359 -0.69549,-1.76241 -0.84475,-0.7609 -1.52012,-0.54162 -3.07341,0.99786 l -1.43023,1.41752 -0.74089,-0.7181 c -0.95946,-0.92995 -1.76078,-0.9423 -2.66205,-0.041 -0.54609,0.54608 -0.64818,0.79504 -0.52776,1.28691 0.27492,1.12298 3.02891,3.62847 3.99055,3.63047 0.22069,4.5e-4 0.91909,-0.47756 1.55199,-1.06227 z"
       style="fill:#ffffff;fill-opacity:1;stroke-width:0.22381175" />
    <path
       id="path5277-7"
       d="m 68.697236,155.41937 -2.09183,-2.10056 -3.61095,-0.0941 c -3.83277,-0.0999 -4.42717,-0.24588 -5.44671,-1.33782 -1.08461,-1.16162 -1.18578,-1.81257 -1.18445,-7.62062 7.4e-4,-3.18946 0.10077,-5.79306 0.24215,-6.30225 0.33861,-1.21948 1.66889,-2.57541 2.77806,-2.83161 0.49239,-0.11374 4.26921,-0.20698 8.39294,-0.20721 6.98968,-4.1e-4 7.56373,0.0295 8.47226,0.4418 1.11668,0.50671 1.8206,1.28799 2.19755,2.43906 0.17051,0.52066 0.2686,2.77358 0.27977,6.42569 0.0187,6.13248 -0.0595,6.61553 -1.25139,7.72149 -1.02376,0.94998 -1.63758,1.16139 -3.76718,1.29746 l -2.0143,0.12871 -0.0643,2.07026 c -0.0556,1.78961 -0.11691,2.07026 -0.45205,2.07026 -0.21323,0 -1.32901,-0.94526 -2.47951,-2.10056 z"
       style="fill:#8dc7b6;fill-opacity:1;stroke-width:0.22381175" />
    <g
       id="text5365-52"
       style="font-style:normal;font-weight:normal;font-size:16.45977783px;line-height:1.25;font-family:sans-serif;letter-spacing:0px;word-spacing:0px;fill:#fcfcfc;fill-opacity:1;stroke:none;stroke-width:0.41149443"
       transform="scale(1.0738459,0.93123231)"
       aria-label="?">
      <path
         id="path1773"
         style="font-style:normal;font-variant:normal;font-weight:bold;font-stretch:normal;font-size:16.45977783px;font-family:monospace;-inkscape-font-specification:'monospace, Bold';font-variant-ligatures:normal;font-variant-caps:normal;font-variant-numeric:normal;font-feature-settings:normal;text-align:justify;writing-mode:lr-tb;text-anchor:start;fill:#fcfcfc;fill-opacity:1;stroke-width:0.41149443"
         d="m 61.763281,158.87753 c 0.669897,-0.26174 1.004129,-0.26736 1.624191,0.12891 0.287866,0.36189 0.599969,0.80248 0.186317,1.50101 -0.678029,0.71132 -1.244269,0.69309 -1.959562,0.12891 -0.591282,-0.90968 -0.203527,-1.32974 0.149054,-1.75883 z m 1.959562,-1.20619 c 0.216242,0.74091 -2.387743,0.83007 -2.145879,0 v -1.2377 c 0,-0.53044 0.08305,-0.98319 0.249147,-1.35825 0.166098,-0.37506 0.463467,-0.77155 0.892107,-1.18947 l 0.72333,-0.7153 c 0.337554,-0.32683 0.565269,-0.59741 0.683145,-0.81173 0.123234,-0.21432 0.184851,-0.43668 0.184851,-0.66708 0,-0.35898 -0.123234,-0.62956 -0.369702,-0.81173 -0.246468,-0.18217 -0.61617,-0.27326 -1.109106,-0.27326 -0.450072,0 -0.791154,0.0535 -1.060509,0.63309 -0.05905,0.20902 -0.839497,1.92982 -1.801027,1.10171 -0.514926,-0.59073 -0.913479,-1.82562 -0.05589,-2.7555 0.562347,-0.60084 1.018263,-0.73993 1.554063,-0.88996 0.541158,-0.15538 1.007789,-0.14713 1.548947,-0.14713 1.082316,0 2.043349,0.38074 2.65952,0.88439 0.61617,0.50365 0.924255,1.19751 0.924255,2.08158 0,0.40721 -0.09109,0.78762 -0.273258,1.14125 -0.182172,0.34827 -0.525084,0.76888 -1.028736,1.26181 l -0.707257,0.69119 c -0.364344,0.35363 -0.597417,0.64296 -0.699219,0.86799 -0.101802,0.22504 -0.152703,0.50098 -0.152703,0.82781 0,0.0482 -0.0027,0.10446 -0.008,0.16878 0,0.0643 -0.0027,0.13392 -0.008,0.20896 z" />
    </g>
    <path
       id="path5277-7-4"
       d="m 102.95028,154.77912 -2.09183,-2.10056 -3.610949,-0.0941 c -3.832766,-0.0999 -4.427166,-0.24588 -5.446706,-1.33782 -1.08461,-1.16162 -1.18578,-1.81257 -1.18445,-7.62062 7.4e-4,-3.18946 0.10077,-5.79306 0.24215,-6.30225 0.33861,-1.21948 1.66889,-2.57541 2.77806,-2.83161 0.49239,-0.11374 4.269206,-0.20698 8.392935,-0.20721 6.98968,-4.1e-4 7.56373,0.0295 8.47226,0.4418 1.11668,0.50671 1.8206,1.28799 2.19755,2.43906 0.17051,0.52066 0.2686,2.77358 0.27977,6.42569 0.0187,6.13248 -0.0595,6.61553 -1.25139,7.72149 -1.02376,0.94998 -1.63758,1.16139 -3.76718,1.29746 l -2.0143,0.12871 -0.0643,2.07026 c -0.0556,1.78961 -0.11691,2.07026 -0.45205,2.07026 -0.21323,0 -1.32901,-0.94526 -2.47951,-2.10056 z"
       style="fill:#8dc7b6;fill-opacity:1;stroke-width:0.22381175" />
    <path
       id="path5261-4"
       d="m 108.61092,140.29909 c 0.0598,-0.45186 -0.0562,-0.66165 -0.43307,-0.78334 -0.28313,-0.0914 -3.27415,-0.11585 -6.64675,-0.0543 -5.653109,0.10317 -6.13895,0.14351 -6.221352,0.51665 -0.233892,1.05907 -0.217147,1.06156 6.709242,0.99793 l 6.51024,-0.0598 z"
       style="fill:#fbfbfb;fill-opacity:1;stroke-width:0.24010237" />
    <path
       id="path5261-3"
       d="m 108.80743,143.3099 c 0.0616,-0.45186 -0.0578,-0.66165 -0.44589,-0.78334 -0.29151,-0.0914 -3.37107,-0.11585 -6.8435,-0.0543 -5.820458,0.10316 -6.32068,0.14351 -6.405522,0.51665 -0.240816,1.05907 -0.223575,1.06156 6.907852,0.99793 l 6.70296,-0.0598 z"
       style="fill:#fbfbfb;fill-opacity:1;stroke-width:0.24363019" />
    <path
       id="path5261-0"
       d="m 108.60325,146.59622 c 0.0601,-0.45186 -0.0564,-0.66165 -0.4349,-0.78334 -0.28433,-0.0914 -3.288,-0.11585 -6.67486,-0.0543 -5.677013,0.10317 -6.164908,0.14351 -6.247659,0.51665 -0.234881,1.05907 -0.218065,1.06156 6.737609,0.99793 l 6.53778,-0.0598 z"
       style="fill:#fbfbfb;fill-opacity:1;stroke-width:0.24060951" />
    <path
       id="path5277-7-4-7"
       d="m 133.52193,155.09925 -2.09183,-2.10056 -3.61095,-0.0941 c -3.83277,-0.0999 -4.42717,-0.24588 -5.44671,-1.33782 -1.08461,-1.16162 -1.18578,-1.81257 -1.18445,-7.62062 7.4e-4,-3.18946 0.10077,-5.79306 0.24215,-6.30225 0.33861,-1.21948 1.66889,-2.57541 2.77806,-2.83161 0.49239,-0.11374 4.26921,-0.20698 8.39294,-0.20721 6.98968,-4.1e-4 7.56373,0.0295 8.47226,0.4418 1.11668,0.50671 1.8206,1.28799 2.19755,2.43906 0.17051,0.52066 0.2686,2.77358 0.27977,6.42569 0.0187,6.13248 -0.0595,6.61553 -1.25139,7.72149 -1.02376,0.94998 -1.63758,1.16139 -3.76718,1.29746 l -2.0143,0.12871 -0.0643,2.07026 c -0.0556,1.78961 -0.11691,2.07026 -0.45205,2.07026 -0.21323,0 -1.32901,-0.94526 -2.47951,-2.10056 z"
       style="fill:#8dc7b6;fill-opacity:1;stroke-width:0.22381175" />
    <path
       id="path5277-7-4-7-8"
       d="m 165.53413,154.61906 -2.09183,-2.10056 -3.61095,-0.0941 c -3.83277,-0.0999 -4.42717,-0.24588 -5.44671,-1.33782 -1.08461,-1.16162 -1.18578,-1.81257 -1.18445,-7.62062 7.4e-4,-3.18946 0.10077,-5.79306 0.24215,-6.30225 0.33861,-1.21948 1.66889,-2.57541 2.77806,-2.83161 0.49239,-0.11374 4.26921,-0.20698 8.39294,-0.20721 6.98968,-4.1e-4 7.56373,0.0295 8.47226,0.4418 1.11668,0.50671 1.8206,1.28799 2.19755,2.43906 0.17051,0.52066 0.2686,2.77358 0.27977,6.42569 0.0187,6.13248 -0.0595,6.61553 -1.25139,7.72149 -1.02376,0.94998 -1.63758,1.16139 -3.76718,1.29746 l -2.0143,0.12871 -0.0643,2.07026 c -0.0556,1.78961 -0.11691,2.07026 -0.45205,2.07026 -0.21323,0 -1.32901,-0.94526 -2.47951,-2.10056 z"
       style="fill:#8dc7b6;fill-opacity:1;stroke-width:0.22381175" />
    <path
       id="path5277-7-4-7-4"
       d="m 32.043273,189.35229 -2.09183,-2.10056 -3.61095,-0.0941 c -3.83277,-0.0999 -4.42717,-0.24588 -5.44671,-1.33782 -1.08461,-1.16162 -1.18578,-1.81257 -1.18445,-7.62062 7.4e-4,-3.18946 0.10077,-5.79306 0.24215,-6.30225 0.33861,-1.21948 1.66889,-2.57541 2.77806,-2.83161 0.49239,-0.11374 4.26921,-0.20698 8.39294,-0.20721 6.98968,-4.1e-4 7.56373,0.0295 8.47226,0.4418 1.11668,0.50671 1.8206,1.28799 2.19755,2.43906 0.17051,0.52066 0.2686,2.77358 0.27977,6.42569 0.0187,6.13248 -0.0595,6.61553 -1.25139,7.72149 -1.02376,0.94998 -1.63758,1.16139 -3.76718,1.29746 l -2.0143,0.12871 -0.0643,2.07026 c -0.0556,1.78961 -0.11691,2.07026 -0.45205,2.07026 -0.21323,0 -1.32901,-0.94526 -2.47951,-2.10056 z"
       style="fill:#8dc7b6;fill-opacity:1;stroke-width:0.22381175" />
    <path
       id="path5277-7-4-7-3"
       d="m 69.33748,187.27151 -2.09183,-2.10056 -3.61095,-0.0941 c -3.83277,-0.0999 -4.42717,-0.24588 -5.44671,-1.33782 -1.08461,-1.16162 -1.18578,-1.81257 -1.18445,-7.62062 7.4e-4,-3.18946 0.10077,-5.79306 0.24215,-6.30225 0.33861,-1.21948 1.66889,-2.57541 2.77806,-2.83161 0.49239,-0.11374 4.26921,-0.20698 8.39294,-0.20721 6.98968,-4.1e-4 7.56373,0.0295 8.47226,0.4418 1.11668,0.50671 1.8206,1.28799 2.19755,2.43906 0.17051,0.52066 0.2686,2.77358 0.27977,6.42569 0.0187,6.13248 -0.0595,6.61553 -1.25139,7.72149 -1.02376,0.94998 -1.63758,1.16139 -3.76718,1.29746 l -2.0143,0.12871 -0.0643,2.07026 c -0.0556,1.78961 -0.11691,2.07026 -0.45205,2.07026 -0.21323,0 -1.32901,-0.94526 -2.47951,-2.10056 z"
       style="fill:#8dc7b6;fill-opacity:1;stroke-width:0.22381175" />
    <path
       id="path991-9"
       d="m 133.76143,137.64346 c 0.0914,-0.002 0.18116,0.0316 0.31118,0.10115 0.70476,0.37718 0.68189,2.00269 -0.0442,3.14757 l -0.3626,0.57168 h 1.85962 c 1.02271,0 1.95969,0.0537 2.08221,0.11925 0.2772,0.14835 0.41151,0.76803 0.25541,1.17859 -0.1014,0.26673 -0.19388,0.30901 -0.67668,0.30901 -0.3076,0 -0.55936,0.0556 -0.55936,0.12361 0,0.068 0.19841,0.12361 0.44082,0.12361 0.66137,0 0.91883,0.18645 0.91883,0.66509 0,0.54373 -0.32217,0.81816 -0.96035,0.81816 -0.27956,0 -0.54271,0.0556 -0.58471,0.1236 -0.0459,0.0743 0.11399,0.12361 0.40051,0.12361 0.55687,0 0.77373,0.17228 0.77373,0.61513 0,0.61637 -0.30952,0.8668 -1.08854,0.88044 -0.5388,0.009 -0.63131,0.0355 -0.39471,0.11129 0.16995,0.0544 0.48978,0.10452 0.71073,0.11129 0.45806,0.0141 0.53099,0.26715 0.2093,0.72642 -0.18933,0.27013 -0.23745,0.27488 -2.99741,0.27208 -2.46772,-0.002 -2.86585,-0.0303 -3.31149,-0.23273 -0.2786,-0.12653 -0.5356,-0.30613 -0.57119,-0.39906 -0.0956,-0.24953 -0.12282,-4.35347 -0.0321,-4.837 0.0625,-0.33334 0.20378,-0.49045 0.71748,-0.79811 0.73048,-0.4375 1.50764,-1.17323 1.76789,-1.67374 0.0977,-0.1879 0.24755,-0.68781 0.33315,-1.11075 0.12461,-0.61568 0.22045,-0.80537 0.48066,-0.95142 0.13726,-0.077 0.23041,-0.11622 0.3218,-0.11877 z"
       style="fill:#ffffff;stroke-width:0.12360466" />
    <path
       id="path987-2"
       d="m 128.31077,141.46771 h 2.4e-4 c 0.37203,3e-5 0.74386,0.0481 0.84013,0.14437 0.21613,0.21612 0.21048,5.82735 -0.006,6.00473 -0.21366,0.175 -1.50421,0.17306 -1.67977,-0.002 -0.20604,-0.20604 -0.20131,-5.79593 0.005,-6.00231 0.0963,-0.0963 0.46834,-0.14434 0.84037,-0.14437 z"
       style="fill:#ffffff;stroke-width:0.12360466" />
    <path
       id="path908-0"
       d="m 128.26731,146.69291 c -0.0264,-1.2e-4 -0.0497,0.005 -0.0683,0.0169 -0.18464,0.11413 -0.17144,0.52953 0.0191,0.60016 0.085,0.0315 0.23602,-0.0194 0.33557,-0.11323 0.15867,-0.14956 0.1563,-0.19543 -0.0191,-0.37081 -0.0825,-0.0825 -0.1882,-0.13257 -0.26725,-0.13302 z"
       style="fill:#8dc7b6;fill-opacity:1;stroke-width:0.12360466" />
    <path
       id="path1730-8"
       d="m 157.65656,148.08196 c -0.0946,-0.35803 0.041,-0.53483 0.47701,-0.62192 0.23909,-0.0478 0.41289,-0.13808 0.38623,-0.20072 -0.0267,-0.0626 -0.0237,-0.22726 0.007,-0.36583 0.0514,-0.23525 0.11563,-0.2496 0.9697,-0.21671 l 0.91464,0.0352 0.0271,0.3423 c 0.0212,0.26715 0.0722,0.34229 0.23235,0.34229 0.19898,0 0.20598,-0.0332 0.22999,-1.08912 l 0.0248,-1.08911 0.84439,-0.0358 c 0.54899,-0.0233 0.8863,0.0147 0.96417,0.1086 0.084,0.10126 0.11978,0.4371 0.11978,1.12489 0,0.96291 0.004,0.98052 0.21426,0.98052 h 0.21426 v -1.85374 c 0,-1.57554 0.0203,-1.86507 0.13556,-1.92929 0.17609,-0.0981 1.43828,-0.0981 1.61436,0 0.11522,0.0642 0.13557,0.35375 0.13557,1.92929 v 1.85374 h 0.21426 0.21426 l 0.001,-2.8317 c 6.6e-4,-1.5665 0.0376,-2.91512 0.0826,-3.0184 0.0589,-0.13545 0.27938,-0.1986 0.80284,-0.23 1.15703,-0.0694 1.08447,-0.28082 1.08447,3.15943 v 2.92067 h 0.21319 0.21319 l 0.0225,-4.51205 0.0225,-4.51205 0.89288,-0.0357 c 0.65661,-0.0263 0.9114,0.007 0.96286,0.12447 0.0385,0.0881 0.0706,2.13352 0.0713,4.54538 l 0.001,4.38521 0.19283,0.0621 c 0.10606,0.0342 0.32782,0.0772 0.4928,0.0957 0.25666,0.0288 0.29997,0.0785 0.29997,0.34477 v 0.31118 l -6.62312,0.0319 c -5.83375,0.0281 -6.62902,0.01 -6.67265,-0.15558 z"
       style="fill:#ffffff;stroke-width:0.10328402" />
    <text
       id="text1786"
       y="179.67529"
       x="22.088415"
       style="font-style:normal;font-variant:normal;font-weight:bold;font-stretch:normal;font-size:4.23333311px;line-height:1.25;font-family:'DejaVu Sans';-inkscape-font-specification:'DejaVu Sans, Bold';font-variant-ligatures:normal;font-variant-caps:normal;font-variant-numeric:normal;font-feature-settings:normal;text-align:start;letter-spacing:0px;word-spacing:0px;writing-mode:lr-tb;text-anchor:start;fill:#ffffff;fill-opacity:1;stroke:none;stroke-width:0.26458332"
       xml:space="preserve"><tspan
         style="font-style:normal;font-variant:normal;font-weight:bold;font-stretch:normal;font-size:4.23333311px;font-family:'DejaVu Sans';-inkscape-font-specification:'DejaVu Sans, Bold';font-variant-ligatures:normal;font-variant-caps:normal;font-variant-numeric:normal;font-feature-settings:normal;text-align:start;writing-mode:lr-tb;text-anchor:start;fill:#ffffff;stroke-width:0.26458332"
         y="179.67529"
         x="22.088415"
         id="tspan1784">Yes No</tspan></text>
    <text
       id="text1790"
       y="178.55489"
       x="58.102139"
       style="font-style:normal;font-weight:normal;font-size:10.58333302px;line-height:1.25;font-family:sans-serif;letter-spacing:0px;word-spacing:0px;fill:#ffffff;fill-opacity:1;stroke:none;stroke-width:0.26458332"
       xml:space="preserve"><tspan
         style="fill:#ffffff;stroke-width:0.26458332"
         y="178.55489"
         x="58.102139"
         id="tspan1788">:)-:(</tspan></text>
    <path
       id="path5277-7-4-7-3-4"
       d="m 104.71096,186.95138 -2.09183,-2.10056 -3.610959,-0.0941 c -3.832765,-0.0999 -4.427165,-0.24588 -5.446705,-1.33782 -1.08461,-1.16162 -1.18578,-1.81257 -1.18445,-7.62062 7.4e-4,-3.18946 0.10077,-5.79306 0.24215,-6.30225 0.33861,-1.21948 1.66889,-2.57541 2.778055,-2.83161 0.49239,-0.11374 4.26921,-0.20698 8.392949,-0.20721 6.98968,-4.1e-4 7.56373,0.0295 8.47226,0.4418 1.11668,0.50671 1.8206,1.28799 2.19755,2.43906 0.17051,0.52066 0.2686,2.77358 0.27977,6.42569 0.0187,6.13248 -0.0595,6.61553 -1.25139,7.72149 -1.02376,0.94998 -1.63758,1.16139 -3.76718,1.29746 l -2.0143,0.12871 -0.0643,2.07026 c -0.0556,1.78961 -0.11691,2.07026 -0.45205,2.07026 -0.21323,0 -1.32901,-0.94526 -2.47951,-2.10056 z"
       style="fill:#8dc7b6;fill-opacity:1;stroke-width:0.22381175" />
    <path
       id="path5331-2"
       d="m 101.81759,180.62538 c -1.74236,-0.20227 -3.278131,-1.01742 -4.336295,-2.30163 -0.829506,-1.00671 -1.048581,-1.61437 -1.06018,-2.94072 -0.0089,-1.01764 0.05922,-1.33738 0.427374,-2.00682 0.908475,-1.65183 2.507801,-2.74806 4.672111,-3.20241 2.58779,-0.54325 5.27314,0.26933 6.88258,2.08266 0.81081,0.91351 1.33497,2.15293 1.33497,3.15661 0,0.53119 -0.46517,1.97723 -0.74425,2.31361 -0.34747,0.4188 -0.26852,1.34222 0.18531,2.1674 0.39717,0.72214 0.39993,0.74716 0.0826,0.74716 -0.1806,0 -0.71103,-0.15498 -1.17873,-0.3444 -1.04877,-0.42474 -1.18504,-0.42544 -2.43301,-0.0123 -1.20292,0.39817 -2.41235,0.50575 -3.83244,0.34089 z"
       style="fill:#ffffff;fill-opacity:1;stroke-width:0.16685922" />
  </g>
</svg>
